<?xml version="1.0" encoding="utf-8"?>
<svg viewBox="258.515 238.169 31.854 70.787" xmlns="http://www.w3.org/2000/svg">
  <path style="fill:  #CBCBCB; stroke-linejoin: round; stroke-linecap: round;" d="M 261.147 238.169 C 261.147 238.169 264.923 249.449 281.366 257.628 C 297.809 265.807 286.699 288.087 286.699 288.087 C 286.699 288.087 285.59 275.679 277.145 271.73 C 268.7 267.782 260.479 265.525 258.925 256.783 C 257.371 248.04 260.702 239.015 261.147 238.169 Z"/>
  <path style="fill:  #CBCBCB; stroke-linejoin: round; stroke-linecap: round;" d="M 265.59 271.166 C 265.59 271.166 259.146 273.987 270.923 280.19 C 282.7 286.393 283.589 292.319 282.033 299.65 C 280.477 306.981 276.701 308.956 276.701 308.956 C 276.701 308.956 279.812 305.007 271.812 296.548 C 263.812 288.088 258.482 286.113 258.926 279.345 C 259.37 272.576 264.702 270.602 265.59 271.166 Z"/>
  <path style="fill:  #CBCBCB; stroke-linejoin: round; stroke-linecap: round;" d="M 265.59 270.884 C 265.59 270.884 278.338 271.484 281.811 275.96 C 285.104 280.204 284.617 291.274 282.652 292.054 C 281.685 288.052 278.562 284.337 271.31 280.517 C 259.533 274.315 265.59 270.884 265.59 270.884 Z"/>
</svg>