<?xml version="1.0" encoding="utf-8"?>
<svg viewBox="2 2 18 18" xmlns="http://www.w3.org/2000/svg">
  <path d="M 11 2 C 6.05 2 2 6.05 2 11 C 2 15.95 6.05 20 11 20 C 15.95 20 20 15.95 20 11 C 20 6.05 15.95 2 11 2 Z M 18.65 10.357 L 15.757 10.357 C 15.629 7.721 14.986 5.407 13.957 3.864 C 16.593 4.957 18.457 7.464 18.65 10.357 Z M 10.357 3.414 L 10.357 10.357 L 7.464 10.357 C 7.593 6.693 9.071 4.057 10.357 3.414 Z M 10.357 11.643 L 10.357 18.586 C 9.071 17.943 7.593 15.371 7.464 11.643 L 10.357 11.643 Z M 11.643 18.586 L 11.643 11.643 L 14.536 11.643 C 14.407 15.307 12.929 17.943 11.643 18.586 Z M 11.643 10.357 L 11.643 3.414 C 12.929 4.057 14.407 6.629 14.536 10.357 L 11.643 10.357 Z M 8.043 3.864 C 6.95 5.407 6.307 7.721 6.179 10.357 L 3.35 10.357 C 3.543 7.464 5.407 4.957 8.043 3.864 Z M 3.35 11.643 L 6.243 11.643 C 6.371 14.279 7.014 16.593 8.043 18.136 C 5.407 17.043 3.543 14.536 3.35 11.643 Z M 13.957 18.136 C 14.986 16.593 15.693 14.343 15.757 11.643 L 18.65 11.643 C 18.457 14.536 16.593 17.043 13.957 18.136 Z" style="fill: rgb(239, 239, 239);"/>
</svg>