<?xml version="1.0" encoding="utf-8"?>
<svg viewBox="18.382 0.573 12.857 18" xmlns="http://www.w3.org/2000/svg">
  <path d="M 30.146 7.645 L 29.311 7.645 L 29.311 5.395 C 29.311 2.63 27.382 0.573 24.811 0.573 C 22.239 0.573 20.311 2.63 20.311 5.395 L 20.311 7.645 L 19.604 7.645 C 18.896 7.645 18.382 8.288 18.382 8.93 L 18.382 18.573 L 31.239 18.573 L 31.239 8.93 C 31.239 8.223 30.854 7.645 30.146 7.645 Z M 21.596 5.395 C 21.596 3.338 22.946 1.859 24.811 1.859 C 26.675 1.859 28.025 3.338 28.025 5.395 L 28.025 7.645 L 21.596 7.645 L 21.596 5.395 Z M 29.954 17.288 L 19.668 17.288 L 19.668 8.93 C 20.246 8.93 29.954 8.93 29.954 8.93 C 29.954 8.93 29.954 17.288 29.954 17.288 Z" style="fill: rgb(239, 239, 239);"/>
</svg>