<svg width="18" height="18" viewBox="0 0 18 18" fill="none" xmlns="http://www.w3.org/2000/svg">
<path d="M10.5755 14.4748C12.4446 14.4726 14.2366 13.7291 15.5583 12.4074C16.88 11.0857 17.6235 9.29369 17.6258 7.42453C17.6235 5.55536 16.88 3.76339 15.5583 2.44168C14.2366 1.11998 12.4446 0.376457 10.5755 0.374207C8.7063 0.376457 6.91434 1.11998 5.59263 2.44168C4.27093 3.76339 3.52741 5.55536 3.52516 7.42453C3.52741 9.29369 4.27093 11.0857 5.59263 12.4074C6.91434 13.7291 8.7063 14.4726 10.5755 14.4748ZM10.5755 1.39051C13.905 1.39051 16.6137 4.09497 16.6137 7.42878C16.6137 10.7541 13.905 13.4628 10.5755 13.4628C7.24592 13.4628 4.5372 10.7541 4.5372 7.42453C4.5372 4.09497 7.24592 1.38625 10.5755 1.38625V1.39051Z" fill="#6F6F6F" stroke="#6F6F6F" stroke-width="0.665527" stroke-linecap="round" stroke-linejoin="round"/>
<path d="M1.14387 17.6258L6.05103 12.7186L5.28136 11.949L0.374198 16.8561L1.14387 17.6258Z" fill="#6F6F6F"/>
<path d="M1.14387 17.6258L6.05103 12.7186L5.28136 11.949L0.374199 16.8561L1.14387 17.6258" stroke="#6F6F6F" stroke-width="0.665527" stroke-linecap="round" stroke-linejoin="round"/>
</svg>
