<svg width="18" height="18" viewBox="0 0 18 18" fill="none" xmlns="http://www.w3.org/2000/svg">
<path d="M16.9071 13.5643C16.3929 13.1786 15.75 13.05 15.0429 12.8571C14.2714 12.6643 13.5 12.5357 12.9214 12.0214L12.8571 11.9571C12.8571 11.9571 12.5357 11.7 12.4714 11.3786C12.4071 11.0571 12.5357 10.7357 12.8571 10.35C14.0786 8.80714 14.6571 7.26429 14.6571 5.72143C14.6571 2.50714 12.0857 0 9 0C5.91429 0 3.34286 2.50714 3.34286 5.65714C3.34286 7.07143 3.92143 8.67857 5.14286 10.2857C5.46429 10.6714 5.59286 11.0571 5.52857 11.3786C5.46429 11.7643 5.14286 11.9571 5.14286 11.9571L5.01429 12.0214C4.43571 12.5357 3.66429 12.7286 2.89286 12.8571C2.18571 12.9857 1.54286 13.1786 1.02857 13.5643C0.128571 14.2714 0 15.3 0 15.6857V18H17.8714V15.75C18 15.3 17.8071 14.2714 16.9071 13.5643ZM1.28571 16.7143V16.2643V15.6214C1.28571 15.6214 1.28571 14.9786 1.86429 14.5286C2.12143 14.3357 2.63571 14.2071 3.15 14.0786C3.98571 13.8857 5.01429 13.6929 5.85 12.9214C6.04286 12.7929 6.62143 12.3429 6.75 11.5714C6.87857 10.8643 6.68571 10.1571 6.17143 9.45C5.14286 8.03571 4.62857 6.68571 4.62857 5.59286C4.62857 3.21429 6.62143 1.28571 9 1.28571C11.3786 1.28571 13.3714 3.21429 13.3714 5.65714C13.3714 6.94286 12.8571 8.16429 11.8286 9.51429C11.3143 10.2214 11.0571 10.9286 11.1857 11.5714C11.3143 12.4071 11.9571 12.8571 12.15 12.9857C12.9857 13.6929 14.0143 13.95 14.85 14.1429C15.3643 14.2714 15.8786 14.4 16.1357 14.5929C16.7143 15.0429 16.65 15.6857 16.65 15.75V16.7786H1.28571V16.7143Z" fill="#6F6F6F"/>
</svg>
