<svg width="21" height="18" viewBox="0 0 21 18" fill="none" xmlns="http://www.w3.org/2000/svg">
<path d="M10.3814 7.69019C9.96826 7.69019 9.63342 7.35586 9.63342 6.94224V4.04338C9.63342 3.63027 9.96826 3.29544 10.3814 3.29544C10.7945 3.29544 11.1293 3.63027 11.1293 4.04338V6.94224C11.1293 7.35586 10.7945 7.69019 10.3814 7.69019Z" fill="#F0FFFD"/>
<path d="M4.22682 16.4917H16.5354V1.93524C16.5354 1.69333 16.3389 1.49688 16.097 1.49688H4.66569C4.42378 1.49688 4.22682 1.69333 4.22682 1.93524V16.4917ZM18.0323 17.9886H2.72992V1.93524C2.72992 0.868118 3.59857 -2.37588e-05 4.66569 -2.37588e-05H16.097C17.1641 -2.37588e-05 18.0323 0.868118 18.0323 1.93524V17.9886Z" fill="#F0FFFD"/>
<path d="M11.67 13.1765H11.6776H11.67ZM9.2878 16.5036H11.4746V13.1765H9.2878V16.5036ZM11.67 18H9.09235C8.37521 18 7.79089 17.4162 7.79089 16.6985V12.9805C7.79089 12.2639 8.37521 11.6801 9.09235 11.6801H11.67C12.3877 11.6801 12.971 12.2639 12.971 12.9805V16.6985C12.971 17.4162 12.3877 18 11.67 18Z" fill="#F0FFFD"/>
<path d="M12.2278 10.1226H8.53454C8.12092 10.1226 7.78558 9.78776 7.78558 9.37464C7.78558 8.96052 8.12092 8.62569 8.53454 8.62569H12.2278C12.6409 8.62569 12.9763 8.96052 12.9763 9.37464C12.9763 9.78776 12.6409 10.1226 12.2278 10.1226Z" fill="#F0FFFD"/>
<path d="M20.2056 17.9966H0.74845C0.334833 17.9966 0 17.6622 0 17.2486C0 16.8345 0.334833 16.5002 0.74845 16.5002H20.2056C20.6188 16.5002 20.9536 16.8345 20.9536 17.2486C20.9536 17.6622 20.6188 17.9966 20.2056 17.9966Z" fill="#F0FFFD"/>
<path d="M11.8304 6.24124H8.93255C8.51893 6.24124 8.18359 5.90641 8.18359 5.4933C8.18359 5.07917 8.51893 4.74434 8.93255 4.74434H11.8304C12.2435 4.74434 12.5788 5.07917 12.5788 5.4933C12.5788 5.90641 12.2435 6.24124 11.8304 6.24124Z" fill="#F0FFFD"/>
</svg>
